<mxfile host="app.diagrams.net" agent="Mozilla/5.0 (Windows NT 10.0; Win64; x64) AppleWebKit/537.36 (KHTML, like Gecko) Chrome/131.0.0.0 Safari/537.36" version="26.0.2">
  <diagram name="Page-1" id="pdsU5GGgprD2SgCTDVgc">
    <mxGraphModel dx="794" dy="412" grid="1" gridSize="10" guides="1" tooltips="1" connect="1" arrows="1" fold="1" page="1" pageScale="1" pageWidth="2300" pageHeight="2300" math="0" shadow="0">
      <root>
        <mxCell id="0" />
        <mxCell id="1" parent="0" />
        <mxCell id="amSMFHpkHX3bF5GHom42-8" style="edgeStyle=orthogonalEdgeStyle;rounded=0;orthogonalLoop=1;jettySize=auto;html=1;entryX=0;entryY=0.5;entryDx=0;entryDy=0;" edge="1" parent="1" source="amSMFHpkHX3bF5GHom42-1" target="amSMFHpkHX3bF5GHom42-4">
          <mxGeometry relative="1" as="geometry" />
        </mxCell>
        <mxCell id="amSMFHpkHX3bF5GHom42-11" style="edgeStyle=orthogonalEdgeStyle;rounded=0;orthogonalLoop=1;jettySize=auto;html=1;entryX=0;entryY=0.5;entryDx=0;entryDy=0;" edge="1" parent="1" source="amSMFHpkHX3bF5GHom42-1" target="amSMFHpkHX3bF5GHom42-5">
          <mxGeometry relative="1" as="geometry" />
        </mxCell>
        <mxCell id="amSMFHpkHX3bF5GHom42-1" value="Browser" style="rounded=1;whiteSpace=wrap;html=1;" vertex="1" parent="1">
          <mxGeometry x="60" y="120" width="80" height="80" as="geometry" />
        </mxCell>
        <mxCell id="amSMFHpkHX3bF5GHom42-2" value="Basic Level" style="text;html=1;align=center;verticalAlign=middle;resizable=0;points=[];autosize=1;strokeColor=none;fillColor=none;" vertex="1" parent="1">
          <mxGeometry x="50" y="28" width="80" height="30" as="geometry" />
        </mxCell>
        <mxCell id="amSMFHpkHX3bF5GHom42-9" style="edgeStyle=orthogonalEdgeStyle;rounded=0;orthogonalLoop=1;jettySize=auto;html=1;entryX=0.5;entryY=0;entryDx=0;entryDy=0;" edge="1" parent="1" source="amSMFHpkHX3bF5GHom42-4" target="amSMFHpkHX3bF5GHom42-6">
          <mxGeometry relative="1" as="geometry" />
        </mxCell>
        <mxCell id="amSMFHpkHX3bF5GHom42-4" value="Listing service" style="rounded=1;whiteSpace=wrap;html=1;" vertex="1" parent="1">
          <mxGeometry x="300" y="40" width="80" height="80" as="geometry" />
        </mxCell>
        <mxCell id="amSMFHpkHX3bF5GHom42-12" style="edgeStyle=orthogonalEdgeStyle;rounded=0;orthogonalLoop=1;jettySize=auto;html=1;entryX=0.5;entryY=1;entryDx=0;entryDy=0;" edge="1" parent="1" source="amSMFHpkHX3bF5GHom42-5" target="amSMFHpkHX3bF5GHom42-6">
          <mxGeometry relative="1" as="geometry" />
        </mxCell>
        <mxCell id="amSMFHpkHX3bF5GHom42-5" value="Order service" style="rounded=1;whiteSpace=wrap;html=1;" vertex="1" parent="1">
          <mxGeometry x="300" y="280" width="80" height="80" as="geometry" />
        </mxCell>
        <mxCell id="amSMFHpkHX3bF5GHom42-6" value="Inventory service" style="rounded=1;whiteSpace=wrap;html=1;" vertex="1" parent="1">
          <mxGeometry x="510" y="130" width="80" height="80" as="geometry" />
        </mxCell>
        <mxCell id="amSMFHpkHX3bF5GHom42-7" value="Inventory DB" style="shape=cylinder3;whiteSpace=wrap;html=1;boundedLbl=1;backgroundOutline=1;size=15;" vertex="1" parent="1">
          <mxGeometry x="670" y="140" width="120" height="80" as="geometry" />
        </mxCell>
        <mxCell id="amSMFHpkHX3bF5GHom42-10" style="edgeStyle=orthogonalEdgeStyle;rounded=0;orthogonalLoop=1;jettySize=auto;html=1;entryX=0;entryY=0;entryDx=0;entryDy=27.5;entryPerimeter=0;" edge="1" parent="1" source="amSMFHpkHX3bF5GHom42-6" target="amSMFHpkHX3bF5GHom42-7">
          <mxGeometry relative="1" as="geometry" />
        </mxCell>
        <mxCell id="amSMFHpkHX3bF5GHom42-13" value="Read operations" style="text;html=1;align=center;verticalAlign=middle;resizable=0;points=[];autosize=1;strokeColor=none;fillColor=none;" vertex="1" parent="1">
          <mxGeometry x="185" y="48" width="110" height="30" as="geometry" />
        </mxCell>
        <mxCell id="amSMFHpkHX3bF5GHom42-14" value="Write operations" style="text;html=1;align=center;verticalAlign=middle;resizable=0;points=[];autosize=1;strokeColor=none;fillColor=none;" vertex="1" parent="1">
          <mxGeometry x="195" y="328" width="110" height="30" as="geometry" />
        </mxCell>
      </root>
    </mxGraphModel>
  </diagram>
</mxfile>
